<svg xmlns="http://www.w3.org/2000/svg" viewBox="0 0 210.96 210.96"><defs><style>.cls-1{fill:#80ffcc;}</style></defs><title>Recurso 2</title><g id="Capa_2" data-name="Capa 2"><g id="Capa_1-2" data-name="Capa 1"><circle cx="102.23" cy="104.82" r="81.25"/><path class="cls-1" d="M145,105.5c0-13.2-3.23-24.23-9.32-31.89-6.73-8.45-16.82-12.74-30-12.74-12.91,0-23,4.27-29.94,12.69-6.43,7.79-9.83,18.76-9.83,31.74v23L60.6,141.89h89.76L145,128.25ZM120.74,90.14a6.41,6.41,0,0,1,6.44,6.43,6.15,6.15,0,0,1-1.43,4.08h-10a6.15,6.15,0,0,1-1.43-4.08A6.41,6.41,0,0,1,120.74,90.14Zm-30.52,0a6.41,6.41,0,0,1,6.44,6.43,6.15,6.15,0,0,1-1.43,4.08h-10a6.15,6.15,0,0,1-1.44-4.08A6.41,6.41,0,0,1,90.22,90.14Zm15.26,37A28.68,28.68,0,0,1,83,116.1l6.69-4.75a20.31,20.31,0,0,0,31.65,0L128,116.1A28.71,28.71,0,0,1,105.48,127.13Z"/><path class="cls-1" d="M105.48,0A105.48,105.48,0,1,0,211,105.48,105.49,105.49,0,0,0,105.48,0Zm0,32.32a13.43,13.43,0,0,1,13.41,13.41,13,13,0,0,1-.31,2.75,54.91,54.91,0,0,0-8.15-1.21,5,5,0,0,0,.26-1.54,5.21,5.21,0,1,0-10.15,1.58,53.88,53.88,0,0,0-8.13,1.31,12.94,12.94,0,0,1-.33-2.89A13.42,13.42,0,0,1,105.48,32.32Zm15.8,124.35,0,.27a15.9,15.9,0,0,1-31.52,0l0-.27v-1.24h8.2v.67a7.7,7.7,0,0,0,15.2,0v-.67h8.2Zm-72.7-6.58,9.16-23.39V105.3c0-14.91,4-27.69,11.71-37,8.47-10.25,21-15.67,36.26-15.67,29.75,0,47.52,19.75,47.52,52.83v21.2l9.15,23.39Z"/></g></g></svg>